<svg width="38" height="38" viewBox="0 0 38 38" fill="none" xmlns="http://www.w3.org/2000/svg">
<path d="M4.41667 37.75C3.27084 37.75 2.28959 37.3417 1.47292 36.525C0.656253 35.7083 0.248615 34.7278 0.250004 33.5833V27.3333C0.250004 26.1827 1.18274 25.25 2.33334 25.25C3.48393 25.25 4.41667 26.1827 4.41667 27.3333V29.4167C4.41667 31.7179 6.28215 33.5833 8.58334 33.5833H10.6667C11.8173 33.5833 12.75 34.5161 12.75 35.6667C12.75 36.8173 11.8173 37.75 10.6667 37.75H4.41667ZM27.3333 37.75C26.1827 37.75 25.25 36.8173 25.25 35.6667C25.25 34.5161 26.1827 33.5833 27.3333 33.5833H29.4167C31.7179 33.5833 33.5833 31.7179 33.5833 29.4167V27.3333C33.5833 26.1827 34.5161 25.25 35.6667 25.25C36.8173 25.25 37.75 26.1827 37.75 27.3333V33.5833C37.75 34.7292 37.3417 35.7104 36.525 36.5271C35.7083 37.3438 34.7278 37.7514 33.5833 37.75H27.3333ZM13.3879 25.0025C12.5775 25.8274 11.2499 25.8333 10.4322 25.0156L8.15008 22.7334C6.08818 20.6715 6.08817 17.3285 8.15008 15.2666L10.4322 12.9844C11.2499 12.1667 12.5775 12.1726 13.3879 12.9975C14.1883 13.8122 14.1825 15.1196 13.3749 15.9271L12.5777 16.7244C11.3209 17.9812 11.3209 20.0188 12.5777 21.2757L13.3749 22.0729C14.1825 22.8804 14.1883 24.1879 13.3879 25.0025ZM27.5678 25.0156C26.7501 25.8333 25.4225 25.8274 24.6121 25.0025C23.8118 24.1879 23.8175 22.8804 24.6251 22.0729L25.4223 21.2757C26.6791 20.0188 26.6791 17.9812 25.4223 16.7244L24.6251 15.9271C23.8175 15.1196 23.8118 13.8122 24.6121 12.9975C25.4225 12.1726 26.7501 12.1667 27.5678 12.9844L29.8499 15.2666C31.9118 17.3285 31.9118 20.6715 29.8499 22.7334L27.5678 25.0156ZM2.33334 12.75C1.18274 12.75 0.250004 11.8173 0.250004 10.6667V4.41667C0.250004 3.27084 0.658337 2.28959 1.475 1.47292C2.29167 0.656253 3.27223 0.248615 4.41667 0.250004H10.6667C11.8173 0.250004 12.75 1.18274 12.75 2.33334C12.75 3.48393 11.8173 4.41667 10.6667 4.41667H8.58334C6.28215 4.41667 4.41667 6.28215 4.41667 8.58334V10.6667C4.41667 11.8173 3.48393 12.75 2.33334 12.75ZM35.6667 12.75C34.5161 12.75 33.5833 11.8173 33.5833 10.6667V8.58334C33.5833 6.28215 31.7179 4.41667 29.4167 4.41667H27.3333C26.1827 4.41667 25.25 3.48393 25.25 2.33334C25.25 1.18274 26.1827 0.250004 27.3333 0.250004H33.5833C34.7292 0.250004 35.7104 0.658337 36.5271 1.475C37.3438 2.29167 37.7514 3.27223 37.75 4.41667V10.6667C37.75 11.8173 36.8173 12.75 35.6667 12.75Z" fill="url(#paint0_linear_127_79)"/>
<defs>
<linearGradient id="paint0_linear_127_79" x1="0.25" y1="19" x2="37.75" y2="19" gradientUnits="userSpaceOnUse">
<stop stop-color="#ED4264"/>
<stop offset="1" stop-color="#A824B6"/>
</linearGradient>
</defs>
</svg>
